<?xml version="1.0" standalone="no"?>
<!DOCTYPE svg PUBLIC "-//W3C//DTD SVG 20010904//EN"
 "http://www.w3.org/TR/2001/REC-SVG-20010904/DTD/svg10.dtd">
<svg version="1.0" xmlns="http://www.w3.org/2000/svg"
 width="260.000000pt" height="260.000000pt" viewBox="0 0 260.000000 260.000000"
 preserveAspectRatio="xMidYMid meet">
<metadata>
Created by potrace 1.14, written by Peter Selinger 2001-2017
</metadata>
<g transform="translate(0.000000,260.000000) scale(0.100000,-0.100000)"
fill="#000000" stroke="none">
<path d="M323 1886 c-30 -22 -39 -70 -19 -101 22 -34 71 -45 224 -52 l132 -6
0 -51 c0 -28 7 -134 15 -236 8 -102 17 -275 19 -385 4 -192 6 -200 27 -218 33
-27 69 -18 97 23 23 34 24 39 18 175 -3 77 -14 265 -23 417 -9 153 -14 280
-10 284 4 4 89 3 190 -3 201 -11 225 -8 241 40 14 38 -9 78 -49 89 -16 4 -199
12 -405 18 -206 5 -388 12 -405 15 -19 4 -38 0 -52 -9z"/>
<path d="M1701 1885 c-210 -59 -373 -266 -418 -531 -35 -212 27 -376 182 -478
148 -98 340 -112 494 -35 122 61 242 228 292 405 30 103 33 299 6 385 -36 120
-118 203 -235 240 -89 28 -247 35 -321 14z m306 -161 c96 -48 126 -114 126
-274 0 -173 -54 -312 -163 -422 -55 -55 -76 -69 -125 -83 -158 -46 -334 25
-401 161 -46 95 -35 247 31 389 57 125 150 219 249 251 26 9 74 13 133 10 77
-3 102 -8 150 -32z"/>
</g>
</svg>
